<svg xmlns="http://www.w3.org/2000/svg" viewBox="0 0 2048 2048" style="enable-background:new 0 0 2048 2048" xml:space="preserve"><path style="fill:#ebb39e" d="M1420.674 1002.834c-1.928 6.94-3.694 11.971-3.425 22.498.574 21.736 8.698 41.418 16.508 55.353l126.529 126.529H1151.5l117.237-131.52c6.419-12.941 12.862-31.297 13.362-50.361.312-11.906-1.999-16.79-4.192-25.337l142.767 2.838z"/><path style="fill:#f7e07f" d="M1006.592 1421.666c-.082-27.382.155-160.186 25.461-241.738 6.219-20.029 13.408-35.247 22.626-49.185 5.176-7.829 27.849-40.735 72.132-63.242 41.156-20.925 79.284-21.849 97.593-21.09l38.439 34.278 85.457 76.193 85.457-76.193 38.439-34.278c18.31-.759 56.438.165 97.593 21.09 44.283 22.507 66.955 55.414 72.132 63.242 9.219 13.938 16.407 29.156 22.626 49.185 25.306 81.552 25.544 214.356 25.462 241.738h-683.417z"/><path style="fill:#ebcd6d" d="M1143.882 1445.666c-13.255 0-24-10.745-24-24v-159.283c0-13.255 10.745-24 24-24s24 10.745 24 24v159.283c0 13.255-10.745 24-24 24zM1570.073 1445.666c-13.255 0-24-10.745-24-24v-159.283c0-13.255 10.745-24 24-24s24 10.745 24 24v159.283c0 13.255-10.745 24-24 24z"/><path style="fill:#cfd8dd" d="M1037.18 1314.71c18.41 0 33.34-14.93 33.34-33.35V909.82c0-18.42-14.93-33.35-33.34-33.35H391.32c-18.41 0-33.34 14.93-33.34 33.35v371.54c0 18.42 14.93 33.35 33.34 33.35h645.86z"/><path style="fill:#f35232" d="M890.297 758.332H671.85c-5.523 0-10-4.477-10-10V612.334c0-5.523 4.477-10 10-10h218.447c5.523 0 10 4.477 10 10v135.998c0 5.523-4.477 10-10 10z"/><path style="fill:#f35232" d="m883.135 657.628 105.299-40.003v125.416l-105.299-40.003z"/><path style="fill:#465a65" d="M761.5 1421.666V1273.25c0-26.095-21.154-47.25-47.25-47.25-26.095 0-47.25 21.154-47.25 47.25v148.416h94.5z"/><path style="fill:#ffa96b" d="M1768 1445.666H280c-13.255 0-24-10.745-24-24s10.745-24 24-24h1488c13.255 0 24 10.745 24 24s-10.745 24-24 24z"/><path style="fill:#f4baa6" d="M1502.322 792.733c48.088 15.46 23.258 96.116-13.829 102.363-4.106 19.271-13.484 51.84-36.38 78.939-12.818 15.171-25.195 23.874-28.287 26.001-6.84 4.704-21.453 14.554-43.138 19.676-5.752 1.359-27.964 6.155-55.867 0-5.413-1.194-31.064-7.216-56.574-28.108-6.511-5.332-30.769-26.174-43.845-62.542-4.234-11.776-6.805-25.814-7.779-33.028-37.932-11.009-62.624-67.148-21.215-103.299L1205 692l149.894-37s83.106 21 84.606 23 62.822 114.733 62.822 114.733z"/><path style="fill:#784132" d="M1389.047 708.323c-3.193 5.255-8.699 12.665-17.679 18.271-7.666 4.785-15.419 6.731-22.936 7.464-7.916.772-15.893.046-23.666-1.636-7.58-1.64-22.947-3.464-50.998-1.528-16.299 1.125-33.711 2.013-48.431 9.858-18.767 10.002-25.425 30.771-29.005 50.331-.145.791-.602 1.811-1.387 1.639-.332-.073-.571-.356-.776-.628-5.693-7.56-6.972-19.804-7.969-28.878-3.178-28.911-2.852-51.815-.121-58.323 1.65-3.929 10.004-23.129 29.701-42.163 31.844-30.772 84.291-46.891 110.973-52.429 21.608-4.485 44.451-6.764 66.776-5.21 12.443.866 25.477 2.452 37.578 5.516 9.942 2.517 19.797 7.282 25.769 15.62 6.432 8.98 7.99 20.332 15.692 28.561 8.406 8.98 19.871 14.34 28.472 23.112 11.503 11.731 22.952 30.193 24.614 46.743 1.497 14.909-5.041 28.983-12.569 41.409-1.389 2.292-9.411 28.108-10.762 26.682-3.11-3.285-42.447-13.858-73.674-52.085-7.393-9.051-10.658-12.976-13.436-15.694-1.855-1.814-7.583-7.243-16.029-13.117-2.733-1.901-8.566-6.169-10.137-3.515"/></svg>